<svg xmlns="http://www.w3.org/2000/svg" width="1100" height="500" viewBox="0 0 1100 500" role="img" aria-labelledby="title desc">
  <title id="title">Standard US ABC base layout</title>
  <desc id="desc">Each key shows unshifted output first, then Shift output. Use this to confirm the physical layout.</desc>
  <style>
    .bg { fill: #f6f2ea; }
    .title { font: 700 28px -apple-system, BlinkMacSystemFont, "Segoe UI", sans-serif; fill: #25231f; }
    .subtitle { font: 15px -apple-system, BlinkMacSystemFont, "Segoe UI", sans-serif; fill: #5c574e; }
    .physical { font: 600 10px -apple-system, BlinkMacSystemFont, "Segoe UI", sans-serif; }
    .output { font: 650 17px -apple-system, BlinkMacSystemFont, "Segoe UI Symbol", "Apple Symbols", sans-serif; text-anchor: middle; }
    .combo-text { font: 700 14px -apple-system, BlinkMacSystemFont, "Segoe UI", sans-serif; text-anchor: middle; }
    .plus { font: 700 18px -apple-system, BlinkMacSystemFont, "Segoe UI", sans-serif; fill: #5c574e; }
    .hint { font: 13px -apple-system, BlinkMacSystemFont, "Segoe UI", sans-serif; fill: #5c574e; }
  </style>
  <rect class="bg" width="1100" height="500"/>
  <text x="28" y="38" class="title">Standard US ABC base layout</text>
  <text x="28" y="62" class="subtitle">Each key shows unshifted output first, then Shift output. Use this to confirm the physical layout.</text>
  
      <g transform="translate(28,78)">
        <rect width="128" height="38" rx="8" fill="#25231f" stroke="#25231f" stroke-width="1.4"/>
        <text x="64.0" y="25" class="combo-text" fill="#fffdf7">No modifier</text>
      </g>
<text x="164" y="103" class="plus">+</text>

      <g transform="translate(185,78)">
        <rect width="228" height="38" rx="8" fill="#25231f" stroke="#25231f" stroke-width="1.4"/>
        <text x="114.0" y="25" class="combo-text" fill="#fffdf7">Shift for upper label</text>
      </g>
      <g transform="translate(28,138)">
        <rect width="60" height="56" rx="7" fill="#fffdf7" stroke="#c9c4b8" stroke-width="1.4"/>
        <text x="9" y="16" class="physical" fill="#7c7568">`</text>
        <text x="30.0" y="30" class="output" fill="#1e1c18">`</text>
<text x="30.0" y="47" class="output" fill="#1e1c18">~</text>
      </g>

      <g transform="translate(95,138)">
        <rect width="60" height="56" rx="7" fill="#fffdf7" stroke="#c9c4b8" stroke-width="1.4"/>
        <text x="9" y="16" class="physical" fill="#7c7568">1</text>
        <text x="30.0" y="30" class="output" fill="#1e1c18">1</text>
<text x="30.0" y="47" class="output" fill="#1e1c18">!</text>
      </g>

      <g transform="translate(162,138)">
        <rect width="60" height="56" rx="7" fill="#fffdf7" stroke="#c9c4b8" stroke-width="1.4"/>
        <text x="9" y="16" class="physical" fill="#7c7568">2</text>
        <text x="30.0" y="30" class="output" fill="#1e1c18">2</text>
<text x="30.0" y="47" class="output" fill="#1e1c18">@</text>
      </g>

      <g transform="translate(229,138)">
        <rect width="60" height="56" rx="7" fill="#fffdf7" stroke="#c9c4b8" stroke-width="1.4"/>
        <text x="9" y="16" class="physical" fill="#7c7568">3</text>
        <text x="30.0" y="30" class="output" fill="#1e1c18">3</text>
<text x="30.0" y="47" class="output" fill="#1e1c18">#</text>
      </g>

      <g transform="translate(296,138)">
        <rect width="60" height="56" rx="7" fill="#fffdf7" stroke="#c9c4b8" stroke-width="1.4"/>
        <text x="9" y="16" class="physical" fill="#7c7568">4</text>
        <text x="30.0" y="30" class="output" fill="#1e1c18">4</text>
<text x="30.0" y="47" class="output" fill="#1e1c18">$</text>
      </g>

      <g transform="translate(363,138)">
        <rect width="60" height="56" rx="7" fill="#fffdf7" stroke="#c9c4b8" stroke-width="1.4"/>
        <text x="9" y="16" class="physical" fill="#7c7568">5</text>
        <text x="30.0" y="30" class="output" fill="#1e1c18">5</text>
<text x="30.0" y="47" class="output" fill="#1e1c18">%</text>
      </g>

      <g transform="translate(430,138)">
        <rect width="60" height="56" rx="7" fill="#fffdf7" stroke="#c9c4b8" stroke-width="1.4"/>
        <text x="9" y="16" class="physical" fill="#7c7568">6</text>
        <text x="30.0" y="30" class="output" fill="#1e1c18">6</text>
<text x="30.0" y="47" class="output" fill="#1e1c18">^</text>
      </g>

      <g transform="translate(497,138)">
        <rect width="60" height="56" rx="7" fill="#fffdf7" stroke="#c9c4b8" stroke-width="1.4"/>
        <text x="9" y="16" class="physical" fill="#7c7568">7</text>
        <text x="30.0" y="30" class="output" fill="#1e1c18">7</text>
<text x="30.0" y="47" class="output" fill="#1e1c18">&amp;</text>
      </g>

      <g transform="translate(564,138)">
        <rect width="60" height="56" rx="7" fill="#fffdf7" stroke="#c9c4b8" stroke-width="1.4"/>
        <text x="9" y="16" class="physical" fill="#7c7568">8</text>
        <text x="30.0" y="30" class="output" fill="#1e1c18">8</text>
<text x="30.0" y="47" class="output" fill="#1e1c18">*</text>
      </g>

      <g transform="translate(631,138)">
        <rect width="60" height="56" rx="7" fill="#fffdf7" stroke="#c9c4b8" stroke-width="1.4"/>
        <text x="9" y="16" class="physical" fill="#7c7568">9</text>
        <text x="30.0" y="30" class="output" fill="#1e1c18">9</text>
<text x="30.0" y="47" class="output" fill="#1e1c18">(</text>
      </g>

      <g transform="translate(698,138)">
        <rect width="60" height="56" rx="7" fill="#fffdf7" stroke="#c9c4b8" stroke-width="1.4"/>
        <text x="9" y="16" class="physical" fill="#7c7568">0</text>
        <text x="30.0" y="30" class="output" fill="#1e1c18">0</text>
<text x="30.0" y="47" class="output" fill="#1e1c18">)</text>
      </g>

      <g transform="translate(765,138)">
        <rect width="60" height="56" rx="7" fill="#fffdf7" stroke="#c9c4b8" stroke-width="1.4"/>
        <text x="9" y="16" class="physical" fill="#7c7568">-</text>
        <text x="30.0" y="30" class="output" fill="#1e1c18">-</text>
<text x="30.0" y="47" class="output" fill="#1e1c18">_</text>
      </g>

      <g transform="translate(832,138)">
        <rect width="60" height="56" rx="7" fill="#fffdf7" stroke="#c9c4b8" stroke-width="1.4"/>
        <text x="9" y="16" class="physical" fill="#7c7568">=</text>
        <text x="30.0" y="30" class="output" fill="#1e1c18">=</text>
<text x="30.0" y="47" class="output" fill="#1e1c18">+</text>
      </g>

      <g transform="translate(899,138)">
        <rect width="113" height="56" rx="7" fill="#fffdf7" stroke="#c9c4b8" stroke-width="1.4"/>
        <text x="9" y="16" class="physical" fill="#7c7568">Delete</text>
        <text x="56.5" y="38" class="output" fill="#1e1c18">Delete</text>
      </g>

      <g transform="translate(28,201)">
        <rect width="90" height="56" rx="7" fill="#fffdf7" stroke="#c9c4b8" stroke-width="1.4"/>
        <text x="9" y="16" class="physical" fill="#7c7568">Tab</text>
        <text x="45.0" y="38" class="output" fill="#1e1c18">Tab</text>
      </g>

      <g transform="translate(125,201)">
        <rect width="60" height="56" rx="7" fill="#fffdf7" stroke="#c9c4b8" stroke-width="1.4"/>
        <text x="9" y="16" class="physical" fill="#7c7568">Q</text>
        <text x="30.0" y="30" class="output" fill="#1e1c18">q</text>
<text x="30.0" y="47" class="output" fill="#1e1c18">Q</text>
      </g>

      <g transform="translate(192,201)">
        <rect width="60" height="56" rx="7" fill="#fffdf7" stroke="#c9c4b8" stroke-width="1.4"/>
        <text x="9" y="16" class="physical" fill="#7c7568">W</text>
        <text x="30.0" y="30" class="output" fill="#1e1c18">w</text>
<text x="30.0" y="47" class="output" fill="#1e1c18">W</text>
      </g>

      <g transform="translate(259,201)">
        <rect width="60" height="56" rx="7" fill="#fffdf7" stroke="#c9c4b8" stroke-width="1.4"/>
        <text x="9" y="16" class="physical" fill="#7c7568">E</text>
        <text x="30.0" y="30" class="output" fill="#1e1c18">e</text>
<text x="30.0" y="47" class="output" fill="#1e1c18">E</text>
      </g>

      <g transform="translate(326,201)">
        <rect width="60" height="56" rx="7" fill="#fffdf7" stroke="#c9c4b8" stroke-width="1.4"/>
        <text x="9" y="16" class="physical" fill="#7c7568">R</text>
        <text x="30.0" y="30" class="output" fill="#1e1c18">r</text>
<text x="30.0" y="47" class="output" fill="#1e1c18">R</text>
      </g>

      <g transform="translate(393,201)">
        <rect width="60" height="56" rx="7" fill="#fffdf7" stroke="#c9c4b8" stroke-width="1.4"/>
        <text x="9" y="16" class="physical" fill="#7c7568">T</text>
        <text x="30.0" y="30" class="output" fill="#1e1c18">t</text>
<text x="30.0" y="47" class="output" fill="#1e1c18">T</text>
      </g>

      <g transform="translate(460,201)">
        <rect width="60" height="56" rx="7" fill="#fffdf7" stroke="#c9c4b8" stroke-width="1.4"/>
        <text x="9" y="16" class="physical" fill="#7c7568">Y</text>
        <text x="30.0" y="30" class="output" fill="#1e1c18">y</text>
<text x="30.0" y="47" class="output" fill="#1e1c18">Y</text>
      </g>

      <g transform="translate(527,201)">
        <rect width="60" height="56" rx="7" fill="#fffdf7" stroke="#c9c4b8" stroke-width="1.4"/>
        <text x="9" y="16" class="physical" fill="#7c7568">U</text>
        <text x="30.0" y="30" class="output" fill="#1e1c18">u</text>
<text x="30.0" y="47" class="output" fill="#1e1c18">U</text>
      </g>

      <g transform="translate(594,201)">
        <rect width="60" height="56" rx="7" fill="#fffdf7" stroke="#c9c4b8" stroke-width="1.4"/>
        <text x="9" y="16" class="physical" fill="#7c7568">I</text>
        <text x="30.0" y="30" class="output" fill="#1e1c18">i</text>
<text x="30.0" y="47" class="output" fill="#1e1c18">I</text>
      </g>

      <g transform="translate(661,201)">
        <rect width="60" height="56" rx="7" fill="#fffdf7" stroke="#c9c4b8" stroke-width="1.4"/>
        <text x="9" y="16" class="physical" fill="#7c7568">O</text>
        <text x="30.0" y="30" class="output" fill="#1e1c18">o</text>
<text x="30.0" y="47" class="output" fill="#1e1c18">O</text>
      </g>

      <g transform="translate(728,201)">
        <rect width="60" height="56" rx="7" fill="#fffdf7" stroke="#c9c4b8" stroke-width="1.4"/>
        <text x="9" y="16" class="physical" fill="#7c7568">P</text>
        <text x="30.0" y="30" class="output" fill="#1e1c18">p</text>
<text x="30.0" y="47" class="output" fill="#1e1c18">P</text>
      </g>

      <g transform="translate(795,201)">
        <rect width="60" height="56" rx="7" fill="#fffdf7" stroke="#c9c4b8" stroke-width="1.4"/>
        <text x="9" y="16" class="physical" fill="#7c7568">[</text>
        <text x="30.0" y="30" class="output" fill="#1e1c18">[</text>
<text x="30.0" y="47" class="output" fill="#1e1c18">{</text>
      </g>

      <g transform="translate(862,201)">
        <rect width="60" height="56" rx="7" fill="#fffdf7" stroke="#c9c4b8" stroke-width="1.4"/>
        <text x="9" y="16" class="physical" fill="#7c7568">]</text>
        <text x="30.0" y="30" class="output" fill="#1e1c18">]</text>
<text x="30.0" y="47" class="output" fill="#1e1c18">}</text>
      </g>

      <g transform="translate(929,201)">
        <rect width="83" height="56" rx="7" fill="#fffdf7" stroke="#c9c4b8" stroke-width="1.4"/>
        <text x="9" y="16" class="physical" fill="#7c7568">\</text>
        <text x="41.5" y="30" class="output" fill="#1e1c18">\</text>
<text x="41.5" y="47" class="output" fill="#1e1c18">|</text>
      </g>

      <g transform="translate(28,264)">
        <rect width="110" height="56" rx="7" fill="#fffdf7" stroke="#c9c4b8" stroke-width="1.4"/>
        <text x="9" y="16" class="physical" fill="#7c7568">Caps</text>
        <text x="55.0" y="38" class="output" fill="#1e1c18">Caps</text>
      </g>

      <g transform="translate(145,264)">
        <rect width="60" height="56" rx="7" fill="#fffdf7" stroke="#c9c4b8" stroke-width="1.4"/>
        <text x="9" y="16" class="physical" fill="#7c7568">A</text>
        <text x="30.0" y="30" class="output" fill="#1e1c18">a</text>
<text x="30.0" y="47" class="output" fill="#1e1c18">A</text>
      </g>

      <g transform="translate(212,264)">
        <rect width="60" height="56" rx="7" fill="#fffdf7" stroke="#c9c4b8" stroke-width="1.4"/>
        <text x="9" y="16" class="physical" fill="#7c7568">S</text>
        <text x="30.0" y="30" class="output" fill="#1e1c18">s</text>
<text x="30.0" y="47" class="output" fill="#1e1c18">S</text>
      </g>

      <g transform="translate(279,264)">
        <rect width="60" height="56" rx="7" fill="#fffdf7" stroke="#c9c4b8" stroke-width="1.4"/>
        <text x="9" y="16" class="physical" fill="#7c7568">D</text>
        <text x="30.0" y="30" class="output" fill="#1e1c18">d</text>
<text x="30.0" y="47" class="output" fill="#1e1c18">D</text>
      </g>

      <g transform="translate(346,264)">
        <rect width="60" height="56" rx="7" fill="#fffdf7" stroke="#c9c4b8" stroke-width="1.4"/>
        <text x="9" y="16" class="physical" fill="#7c7568">F</text>
        <text x="30.0" y="30" class="output" fill="#1e1c18">f</text>
<text x="30.0" y="47" class="output" fill="#1e1c18">F</text>
      </g>

      <g transform="translate(413,264)">
        <rect width="60" height="56" rx="7" fill="#fffdf7" stroke="#c9c4b8" stroke-width="1.4"/>
        <text x="9" y="16" class="physical" fill="#7c7568">G</text>
        <text x="30.0" y="30" class="output" fill="#1e1c18">g</text>
<text x="30.0" y="47" class="output" fill="#1e1c18">G</text>
      </g>

      <g transform="translate(480,264)">
        <rect width="60" height="56" rx="7" fill="#fffdf7" stroke="#c9c4b8" stroke-width="1.4"/>
        <text x="9" y="16" class="physical" fill="#7c7568">H</text>
        <text x="30.0" y="30" class="output" fill="#1e1c18">h</text>
<text x="30.0" y="47" class="output" fill="#1e1c18">H</text>
      </g>

      <g transform="translate(547,264)">
        <rect width="60" height="56" rx="7" fill="#fffdf7" stroke="#c9c4b8" stroke-width="1.4"/>
        <text x="9" y="16" class="physical" fill="#7c7568">J</text>
        <text x="30.0" y="30" class="output" fill="#1e1c18">j</text>
<text x="30.0" y="47" class="output" fill="#1e1c18">J</text>
      </g>

      <g transform="translate(614,264)">
        <rect width="60" height="56" rx="7" fill="#fffdf7" stroke="#c9c4b8" stroke-width="1.4"/>
        <text x="9" y="16" class="physical" fill="#7c7568">K</text>
        <text x="30.0" y="30" class="output" fill="#1e1c18">k</text>
<text x="30.0" y="47" class="output" fill="#1e1c18">K</text>
      </g>

      <g transform="translate(681,264)">
        <rect width="60" height="56" rx="7" fill="#fffdf7" stroke="#c9c4b8" stroke-width="1.4"/>
        <text x="9" y="16" class="physical" fill="#7c7568">L</text>
        <text x="30.0" y="30" class="output" fill="#1e1c18">l</text>
<text x="30.0" y="47" class="output" fill="#1e1c18">L</text>
      </g>

      <g transform="translate(748,264)">
        <rect width="60" height="56" rx="7" fill="#fffdf7" stroke="#c9c4b8" stroke-width="1.4"/>
        <text x="9" y="16" class="physical" fill="#7c7568">;</text>
        <text x="30.0" y="30" class="output" fill="#1e1c18">;</text>
<text x="30.0" y="47" class="output" fill="#1e1c18">:</text>
      </g>

      <g transform="translate(815,264)">
        <rect width="60" height="56" rx="7" fill="#fffdf7" stroke="#c9c4b8" stroke-width="1.4"/>
        <text x="9" y="16" class="physical" fill="#7c7568">&#x27;</text>
        <text x="30.0" y="30" class="output" fill="#1e1c18">&#x27;</text>
<text x="30.0" y="47" class="output" fill="#1e1c18">&quot;</text>
      </g>

      <g transform="translate(882,264)">
        <rect width="137" height="56" rx="7" fill="#fffdf7" stroke="#c9c4b8" stroke-width="1.4"/>
        <text x="9" y="16" class="physical" fill="#7c7568">Return</text>
        <text x="68.5" y="38" class="output" fill="#1e1c18">Return</text>
      </g>

      <g transform="translate(28,327)">
        <rect width="143" height="56" rx="7" fill="#fffdf7" stroke="#c9c4b8" stroke-width="1.4"/>
        <text x="9" y="16" class="physical" fill="#7c7568">Shift</text>
        <text x="71.5" y="38" class="output" fill="#1e1c18">Shift</text>
      </g>

      <g transform="translate(178,327)">
        <rect width="60" height="56" rx="7" fill="#fffdf7" stroke="#c9c4b8" stroke-width="1.4"/>
        <text x="9" y="16" class="physical" fill="#7c7568">Z</text>
        <text x="30.0" y="30" class="output" fill="#1e1c18">z</text>
<text x="30.0" y="47" class="output" fill="#1e1c18">Z</text>
      </g>

      <g transform="translate(245,327)">
        <rect width="60" height="56" rx="7" fill="#fffdf7" stroke="#c9c4b8" stroke-width="1.4"/>
        <text x="9" y="16" class="physical" fill="#7c7568">X</text>
        <text x="30.0" y="30" class="output" fill="#1e1c18">x</text>
<text x="30.0" y="47" class="output" fill="#1e1c18">X</text>
      </g>

      <g transform="translate(312,327)">
        <rect width="60" height="56" rx="7" fill="#fffdf7" stroke="#c9c4b8" stroke-width="1.4"/>
        <text x="9" y="16" class="physical" fill="#7c7568">C</text>
        <text x="30.0" y="30" class="output" fill="#1e1c18">c</text>
<text x="30.0" y="47" class="output" fill="#1e1c18">C</text>
      </g>

      <g transform="translate(379,327)">
        <rect width="60" height="56" rx="7" fill="#fffdf7" stroke="#c9c4b8" stroke-width="1.4"/>
        <text x="9" y="16" class="physical" fill="#7c7568">V</text>
        <text x="30.0" y="30" class="output" fill="#1e1c18">v</text>
<text x="30.0" y="47" class="output" fill="#1e1c18">V</text>
      </g>

      <g transform="translate(446,327)">
        <rect width="60" height="56" rx="7" fill="#fffdf7" stroke="#c9c4b8" stroke-width="1.4"/>
        <text x="9" y="16" class="physical" fill="#7c7568">B</text>
        <text x="30.0" y="30" class="output" fill="#1e1c18">b</text>
<text x="30.0" y="47" class="output" fill="#1e1c18">B</text>
      </g>

      <g transform="translate(513,327)">
        <rect width="60" height="56" rx="7" fill="#fffdf7" stroke="#c9c4b8" stroke-width="1.4"/>
        <text x="9" y="16" class="physical" fill="#7c7568">N</text>
        <text x="30.0" y="30" class="output" fill="#1e1c18">n</text>
<text x="30.0" y="47" class="output" fill="#1e1c18">N</text>
      </g>

      <g transform="translate(580,327)">
        <rect width="60" height="56" rx="7" fill="#fffdf7" stroke="#c9c4b8" stroke-width="1.4"/>
        <text x="9" y="16" class="physical" fill="#7c7568">M</text>
        <text x="30.0" y="30" class="output" fill="#1e1c18">m</text>
<text x="30.0" y="47" class="output" fill="#1e1c18">M</text>
      </g>

      <g transform="translate(647,327)">
        <rect width="60" height="56" rx="7" fill="#fffdf7" stroke="#c9c4b8" stroke-width="1.4"/>
        <text x="9" y="16" class="physical" fill="#7c7568">,</text>
        <text x="30.0" y="30" class="output" fill="#1e1c18">,</text>
<text x="30.0" y="47" class="output" fill="#1e1c18">&lt;</text>
      </g>

      <g transform="translate(714,327)">
        <rect width="60" height="56" rx="7" fill="#fffdf7" stroke="#c9c4b8" stroke-width="1.4"/>
        <text x="9" y="16" class="physical" fill="#7c7568">.</text>
        <text x="30.0" y="30" class="output" fill="#1e1c18">.</text>
<text x="30.0" y="47" class="output" fill="#1e1c18">&gt;</text>
      </g>

      <g transform="translate(781,327)">
        <rect width="60" height="56" rx="7" fill="#fffdf7" stroke="#c9c4b8" stroke-width="1.4"/>
        <text x="9" y="16" class="physical" fill="#7c7568">/</text>
        <text x="30.0" y="30" class="output" fill="#1e1c18">/</text>
<text x="30.0" y="47" class="output" fill="#1e1c18">?</text>
      </g>

      <g transform="translate(848,327)">
        <rect width="170" height="56" rx="7" fill="#fffdf7" stroke="#c9c4b8" stroke-width="1.4"/>
        <text x="9" y="16" class="physical" fill="#7c7568">Shift</text>
        <text x="85.0" y="38" class="output" fill="#1e1c18">Shift</text>
      </g>

      <g transform="translate(28,390)">
        <rect width="80" height="56" rx="7" fill="#fffdf7" stroke="#c9c4b8" stroke-width="1.4"/>
        <text x="9" y="16" class="physical" fill="#7c7568">Control</text>
        <text x="40.0" y="38" class="output" fill="#1e1c18">Control</text>
      </g>

      <g transform="translate(115,390)">
        <rect width="76" height="56" rx="7" fill="#fffdf7" stroke="#c9c4b8" stroke-width="1.4"/>
        <text x="9" y="16" class="physical" fill="#7c7568">Option</text>
        <text x="38.0" y="38" class="output" fill="#1e1c18">Option</text>
      </g>

      <g transform="translate(198,390)">
        <rect width="90" height="56" rx="7" fill="#fffdf7" stroke="#c9c4b8" stroke-width="1.4"/>
        <text x="9" y="16" class="physical" fill="#7c7568">Command</text>
        <text x="45.0" y="38" class="output" fill="#1e1c18">Command</text>
      </g>

      <g transform="translate(295,390)">
        <rect width="401" height="56" rx="7" fill="#fffdf7" stroke="#c9c4b8" stroke-width="1.4"/>
        <text x="9" y="16" class="physical" fill="#7c7568">Space</text>
        <text x="200.5" y="38" class="output" fill="#1e1c18">space</text>
      </g>

      <g transform="translate(703,390)">
        <rect width="90" height="56" rx="7" fill="#fffdf7" stroke="#c9c4b8" stroke-width="1.4"/>
        <text x="9" y="16" class="physical" fill="#7c7568">Command</text>
        <text x="45.0" y="38" class="output" fill="#1e1c18">Command</text>
      </g>

      <g transform="translate(800,390)">
        <rect width="76" height="56" rx="7" fill="#fffdf7" stroke="#c9c4b8" stroke-width="1.4"/>
        <text x="9" y="16" class="physical" fill="#7c7568">Option</text>
        <text x="38.0" y="38" class="output" fill="#1e1c18">Option</text>
      </g>

      <g transform="translate(883,390)">
        <rect width="60" height="56" rx="7" fill="#fffdf7" stroke="#c9c4b8" stroke-width="1.4"/>
        <text x="9" y="16" class="physical" fill="#7c7568">Fn</text>
        <text x="30.0" y="38" class="output" fill="#1e1c18">Fn</text>
      </g>
</svg>
