<svg xmlns="http://www.w3.org/2000/svg" viewBox="0 0 240 240" role="img" aria-label="Bilibili">
  <rect width="240" height="240" rx="54" fill="#00aeec"/>
  <path fill="#fff" d="M81.6 52.2a11.2 11.2 0 0 1 15.8 0L120 74.8l22.6-22.6a11.2 11.2 0 1 1 15.8 15.8l-17.8 17.8h24.5c23.5 0 42.5 19 42.5 42.5v31.8c0 23.5-19 42.5-42.5 42.5H74.9c-23.5 0-42.5-19-42.5-42.5v-31.8c0-23.5 19-42.5 42.5-42.5h24.5L81.6 68a11.2 11.2 0 0 1 0-15.8Zm-6.7 55.9c-11.1 0-20.2 9-20.2 20.2v31.8c0 11.1 9 20.2 20.2 20.2h90.2c11.1 0 20.2-9 20.2-20.2v-31.8c0-11.1-9-20.2-20.2-20.2H74.9Zm23.6 31.6a12.4 12.4 0 1 1-24.8 0 12.4 12.4 0 0 1 24.8 0Zm55.4 12.4a12.4 12.4 0 1 0 0-24.8 12.4 12.4 0 0 0 0 24.8Z"/>
</svg>
